<?xml version="1.0" standalone="no"?>
<!DOCTYPE svg PUBLIC "-//W3C//DTD SVG 20010904//EN"
 "http://www.w3.org/TR/2001/REC-SVG-20010904/DTD/svg10.dtd">
<svg version="1.0" xmlns="http://www.w3.org/2000/svg"
 width="3200.000000pt" height="3200.000000pt" viewBox="0 0 3200.000000 3200.000000"
 preserveAspectRatio="xMidYMid meet">
<metadata>
Created by potrace 1.14, written by Peter Selinger 2001-2017
</metadata>
<g transform="translate(0.000000,3200.000000) scale(0.100000,-0.100000)"
fill="#000000" stroke="none">
<path d="M0 16000 l0 -16000 16000 0 16000 0 0 16000 0 16000 -16000 0 -16000
0 0 -16000z m17727 12961 c194 -156 816 -874 1369 -1581 110 -140 306 -390
435 -555 629 -802 1565 -2026 3432 -4487 449 -592 817 -1081 817 -1087 0 -20
-912 -1878 -997 -2031 -533 -961 -1459 -2121 -2987 -3745 -912 -968 -2023
-2079 -2986 -2986 -1381 -1300 -2664 -2423 -3410 -2985 -1014 -764 -1936
-1362 -2243 -1455 -65 -20 -70 -20 -119 -4 -395 129 -2354 1458 -4248 2880
-1836 1380 -2980 2315 -3412 2789 -279 306 -389 509 -375 691 32 416 934 1774
2131 3210 864 1036 2353 2697 3651 4075 1139 1208 2596 2587 4075 3856 848
727 1522 1258 2510 1975 1149 835 2137 1472 2292 1478 9 1 38 -17 65 -38z
m8058 -7891 c388 -32 647 -140 955 -398 309 -259 656 -719 865 -1147 251 -515
413 -1160 392 -1560 -21 -383 -232 -1061 -563 -1810 -113 -257 -442 -915 -535
-1070 -522 -876 -1495 -2080 -2914 -3605 -521 -561 -836 -888 -1700 -1768
-2447 -2496 -5240 -5088 -6305 -5851 -219 -158 -796 -489 -1069 -616 -355
-164 -605 -231 -901 -241 -469 -17 -1105 149 -1828 476 -330 149 -569 289
-747 435 -346 285 -541 593 -612 966 -21 115 -24 473 -5 619 44 328 120 626
199 785 44 87 132 211 189 265 73 69 121 90 210 90 123 0 248 -49 529 -207
320 -180 626 -293 1015 -377 261 -55 412 -71 545 -57 450 49 1143 299 1521
549 458 303 1457 1135 2334 1943 852 785 2859 2947 4381 4719 135 157 409 476
610 710 1322 1539 2310 2737 2558 3103 113 166 285 607 426 1087 115 392 138
536 138 850 -1 391 -68 701 -216 997 -141 279 -237 597 -241 788 -2 151 39
219 160 265 160 59 366 80 609 60z"/>
</g>
</svg>
