<?xml version="1.0" standalone="no"?>
<!DOCTYPE svg PUBLIC "-//W3C//DTD SVG 20010904//EN"
 "http://www.w3.org/TR/2001/REC-SVG-20010904/DTD/svg10.dtd">
<svg version="1.0" xmlns="http://www.w3.org/2000/svg"
 width="640.000000pt" height="640.000000pt" viewBox="0 0 640.000000 640.000000"
 preserveAspectRatio="xMidYMid meet">
<metadata>
Created by potrace 1.14, written by Peter Selinger 2001-2017
</metadata>
<g transform="translate(0.000000,640.000000) scale(0.100000,-0.100000)"
fill="#000000" stroke="none">
<path d="M0 3200 l0 -3200 3200 0 3200 0 0 3200 0 3200 -3200 0 -3200 0 0
-3200z m4345 1078 c39 -9 88 -19 110 -22 227 -36 325 -68 384 -128 37 -37 121
-175 121 -198 0 -9 11 -60 25 -114 14 -54 25 -111 25 -127 0 -34 -16 -80 -33
-94 -7 -5 -20 -22 -30 -37 -23 -37 -107 -78 -171 -85 -60 -6 -80 9 -90 70 -3
20 -9 52 -12 71 -4 22 -21 49 -50 77 -24 24 -44 49 -44 56 0 7 -25 31 -55 54
-51 38 -63 42 -197 67 -139 25 -156 25 -573 26 -297 0 -456 -3 -515 -12 -47
-7 -229 -22 -405 -33 -335 -21 -338 -21 -450 -38 -181 -27 -217 -41 -361 -134
-87 -56 -102 -73 -112 -129 -13 -67 -62 -158 -89 -164 -45 -12 -69 4 -119 78
-47 71 -48 75 -47 146 1 40 7 96 13 125 28 120 137 288 228 351 24 16 80 38
129 51 49 13 104 30 123 38 19 8 69 20 110 27 41 6 104 20 140 30 54 16 239
48 365 63 17 2 363 3 770 2 633 -1 750 -4 810 -17z m-685 -849 c299 -11 404
-20 550 -43 52 -9 144 -21 203 -26 125 -12 218 -47 237 -89 11 -25 45 -259 54
-381 3 -36 12 -96 20 -135 8 -38 18 -110 21 -160 4 -49 11 -115 15 -145 5 -30
12 -77 16 -105 3 -27 10 -57 14 -65 4 -8 11 -53 15 -100 4 -47 13 -101 20
-120 7 -19 16 -78 19 -131 5 -82 4 -98 -10 -110 -67 -55 -359 -110 -769 -145
-33 -3 -67 -7 -75 -10 -31 -11 -569 -27 -930 -28 -355 -1 -386 1 -585 27 -115
15 -217 30 -225 32 -8 2 -40 6 -70 10 -56 6 -134 19 -323 53 -123 23 -141 35
-132 92 3 19 10 64 15 100 5 36 17 90 25 120 8 30 15 75 15 100 0 25 4 70 9
101 5 30 11 107 12 170 1 63 6 134 11 159 8 45 42 245 58 350 5 30 13 79 18
109 5 29 7 61 5 71 -5 18 30 91 51 109 14 12 210 82 266 96 8 2 47 13 85 24
156 44 375 71 645 81 226 8 276 7 720 -11z"/>
</g>
</svg>
