<svg
      width="910"
      height="94"
      viewBox="0 0 967 94"
      fill="none"
      xmlns="http://www.w3.org/2000/svg"
    >
      <path
        d="M294.3 25.4089C299.9 19.4089 308.9 11.2089 314.4 7.10889C319.8 3.00889 324.6 -0.191112 325 0.00888819C325.4 0.208888 327.9 3.00889 330.4 6.30889C333 9.60889 337.6 15.7089 346.3 27.3089L343.4 33.3089C341.4 37.5089 337.2 42.7089 329.5 50.7089C323.5 57.0089 315.1 64.7089 311 68.0089C306.9 71.2089 302.8 73.9089 302 73.9089C301.2 73.9089 294.4 69.3089 287 63.7089C276.4 55.6089 273.6 53.0089 273.8 51.4089C273.9 50.2089 276.3 46.4089 279.1 42.8089C281.8 39.2089 288.7 31.4089 294.3 25.4089Z"
        fill="#8B5CF8"
        fill-opacity="0.4"
      />
      <path
        d="M554.3 20.7089C557.7 16.2089 562.2 10.1089 564.3 7.10889C567.5 2.60889 568.6 1.80889 570.3 2.40889C571.5 2.70889 575 4.90889 578 7.10889C581 9.40889 588.4 15.7089 594.4 21.3089C600.5 26.8089 608.1 34.7089 611.3 38.8089C614.6 42.9089 618.4 48.1089 619.8 50.3089C621.7 53.5089 621.9 54.4089 620.9 55.0089C620.1 55.3089 617.5 57.2089 615 59.2089C612.5 61.2089 606.9 65.6089 594.5 75.1089L588.5 72.2089C584.4 70.2089 579.1 66.0089 571.1 58.3089C564.8 52.3089 557.1 43.9089 553.8 39.8089C550.6 35.7089 547.9 31.5089 548 30.6089C548 29.6089 550.8 25.1089 554.3 20.7089Z"
        fill="#8B5CF8"
        fill-opacity="0.4"
      />
      <path
        d="M811 23.4089C817.3 16.9089 825.6 9.40889 829.4 6.70889C834.067 3.44222 837.4 1.80889 839.4 1.80889C841.1 1.80889 844.2 2.90889 846.2 4.30889C849.1 6.20889 850 7.50889 850 9.60889C850 11.1089 849.6 12.7089 849 13.3089C848.333 13.9756 846.667 13.9089 844 13.1089C841.4 12.3089 839.2 12.1089 837.7 12.7089C836.5 13.2089 832.9 15.8089 829.6 18.4089C826.4 21.1089 819.2 28.7089 813.7 35.3089C808.1 41.9089 802.5 48.9089 801.2 50.8089C799.4 53.4089 798.9 55.3089 799.2 58.3089C799.5 60.5089 799.8 63.0089 800.1 63.8089C800.4 64.9089 799.7 65.3089 797.5 65.3089C795.3 65.3089 794 64.5089 792.3 61.8089C790.8 59.7089 790 56.8089 790 54.6089C790 51.9089 791.4 48.6089 794.7 43.1089C797.6 38.2089 803.7 30.8089 811 23.4089Z"
        fill="#8B5CF8"
        fill-opacity="0.4"
      />
      <path
        d="M41.4 11.4089C41.7 9.70889 43.3 7.50889 45.2 6.10889C47.2 4.70889 49.8 3.80889 52.2 3.80889C55 3.80889 58.1 5.10889 63.8 8.50889C68.6 11.4089 76 17.5089 83.4 24.8089C89.9 31.1089 97.5 39.4089 100.1 43.3089C103.367 47.9756 105 51.3089 105 53.3089C105 55.0089 103.9 58.0089 102.5 60.1089C100.6 62.8089 99.3 63.8089 97.3 63.8089C95.7 63.9089 93.9 63.2089 93.3 62.3089C92.4 61.3089 92.3 60.4089 93 59.6089C93.6 58.9089 94.1 57.0089 94.2 55.3089C94.2 53.6089 93.7 51.2089 93 49.8089C92.3 48.4089 89.8 45.1089 87.5 42.3089C85.1 39.6089 77.3 32.3089 70.1 26.3089C62.8 20.3089 55.8 14.7089 54.4 14.1089C53.1 13.4089 50.8 12.8089 49.3 12.7089C47.7 12.7089 45.2 13.0089 43.6 13.5089C40.9 14.3089 40.8 14.2089 41.4 11.4089Z"
        fill="#8B5CF8"
        fill-opacity="0.4"
      />
      <path
        d="M198.8 10.1089C198.7 9.40889 199.5 8.40889 200.6 7.80889C201.6 7.20889 204.1 6.90889 206 7.10889C207.9 7.30889 211 8.40889 212.8 9.60889C215 11.2089 216.3 13.1089 217.1 16.1089C217.7 18.4089 218.8 23.2089 219.6 26.8089C220.5 30.9089 221 39.7089 220.9 50.8089C220.9 61.9089 220.4 70.7089 219.5 74.8089C218.6 79.1089 217.3 82.0089 215.8 83.4089C214.5 84.5089 211.5 85.8089 209 86.2089C205 86.9089 204.3 86.8089 202.7 84.7089C201.7 83.4089 201 81.6089 201.2 80.8089C201.4 80.0089 202.4 79.2089 203.5 79.1089C204.6 78.9089 206.5 77.8089 207.7 76.6089C209.4 74.9089 210.2 72.2089 211 66.3089C211.9 60.0089 211.8 54.4089 210.5 39.8089C209.4 27.1089 208.4 20.2089 207.2 17.8089C206.2 15.8089 204.1 13.7089 202.2 12.8089C200.4 12.0089 198.9 10.8089 198.8 10.1089Z"
        fill="#8B5CF8"
        fill-opacity="0.4"
      />
      <path
        d="M675.3 12.3089C675.9 10.9089 678.1 9.10889 680 8.30889C681.9 7.50889 684.7 6.90889 686.3 6.90889C688 6.80889 689.5 7.60889 690.5 9.00889C691.3 10.3089 692 11.9089 692 12.5089C692 13.2089 691.3 13.8089 690.5 13.8089C689.7 13.8089 687.6 15.0089 686 16.5089C683.4 18.9089 682.8 20.4089 681.9 27.3089C681.1 33.5089 681.2 39.4089 682.5 53.8089C683.6 66.5089 684.6 73.4089 685.8 75.8089C686.8 77.8089 688.9 79.9089 690.8 80.8089C692.6 81.6089 694 82.8089 694 83.3089C694.1 83.8089 692.9 85.0089 691.5 85.8089C689.4 87.0089 688.3 87.1089 685.2 86.1089C683.2 85.5089 680.4 83.8089 679 82.4089C677.5 80.9089 675.7 77.1089 674.6 73.1089C673.3 68.0089 672.6 61.4089 672.3 47.3089C671.9 35.4089 672.2 25.8089 672.9 21.6089C673.5 17.8089 674.6 13.7089 675.3 12.3089Z"
        fill="#8B5CF8"
        fill-opacity="0.4"
      />
      <path
        d="M157.3 37.8089C157.6 29.8089 158.4 20.0089 159.1 16.0089L160.4 8.70889L168.4 9.30889C172.9 9.70889 180.6 10.6089 185.5 11.5089C190.4 12.3089 194.8 13.2089 195.3 13.4089C195.7 13.6089 196.7 16.2089 197.6 19.0089C198.7 22.6089 199.4 29.6089 199.8 40.8089C200.1 52.0089 199.8 60.5089 198.9 67.2089C198.1 72.6089 197.1 77.3089 196.5 77.8089C195.9 78.2089 189.4 79.3089 182 80.3089C174.6 81.3089 166.8 82.3089 164.8 82.4089C161.3 82.8089 160.9 82.6089 160.1 79.6089C159.5 77.8089 158.6 70.9089 157.9 64.3089C157.3 57.5089 157 46.1089 157.3 37.8089Z"
        fill="#8B5CF8"
        fill-opacity="0.4"
      />
      <path
        d="M710 13.3089C717.4 12.4089 725 11.3089 726.8 10.9089C728.7 10.5089 730.6 10.3089 731.1 10.5089C731.6 10.6089 732.4 12.3089 732.9 14.0089C733.5 15.8089 734.4 22.0089 734.9 27.8089C735.5 33.6089 736 43.6089 736 50.0089C736 56.5089 735.2 66.9089 734.4 73.0089C733.5 79.2089 732.7 84.4089 732.6 84.6089C732.5 84.7089 726.2 84.2089 718.5 83.3089C710.8 82.4089 702.9 81.4089 701 81.0089C698 80.4089 697.4 79.7089 695.6 74.8089C694.1 70.4089 693.5 65.9089 693.2 52.8089C692.9 42.8089 693.2 32.5089 693.9 26.8089C694.6 21.6089 695.4 16.8089 695.8 16.1089C696.2 15.4089 702 14.2089 710 13.3089Z"
        fill="#8B5CF8"
        fill-opacity="0.4"
      />
      <path
        d="M-99.5 18.9089C-97.3 18.1089 -92.8 16.9089 -89.5 16.3089C-86 15.5089 -75.8 15.0089 -64.5 14.9089C-51.7 14.9089 -43.4 15.3089 -39 16.3089C-35.2 17.1089 -32 18.4089 -31.3 19.5089C-30.6 20.5089 -29.5 22.9089 -29 24.8089C-28.5 26.7089 -28.1 29.1089 -28 30.0089C-28 31.0089 -29.1 32.5089 -30.3 33.3089C-31.5 34.1089 -33 34.8089 -33.5 34.8089C-34.1 34.8089 -35.3 33.0089 -36.3 30.8089C-37.8 27.4089 -38.7 26.6089 -42.3 25.6089C-44.6 25.0089 -51.3 24.4089 -57 24.4089C-62.8 24.4089 -73.6 24.9089 -81 25.6089C-90.3 26.4089 -95.5 27.4089 -97.5 28.6089C-99.2 29.6089 -101.2 31.8089 -102 33.6089C-102.9 35.4089 -104 36.8089 -104.5 36.8089C-105.1 36.7089 -106.1 35.9089 -106.8 35.0089C-107.4 34.1089 -108 32.2089 -108 30.8089C-108 29.4089 -107 26.5089 -105.7 24.3089C-104.1 21.4089 -102.4 19.9089 -99.5 18.9089Z"
        fill="#8B5CF8"
        fill-opacity="0.4"
      />
      <path
        d="M414.1 17.9089C416 17.3089 420.8 16.4089 425 15.9089C429.1 15.4089 441.5 15.1089 452.5 15.3089C464.1 15.5089 475.1 16.2089 485.1 18.3089L484.5 25.8089C484.1 29.9089 483.1 37.6089 482.3 42.8089C481.5 48.0089 480.5 52.6089 480.1 53.0089C479.8 53.4089 475.9 54.6089 471.5 55.8089C465.1 57.4089 460.4 57.8089 448.5 57.8089C440.2 57.7089 429.8 57.2089 425.3 56.5089C420.8 55.8089 416.6 54.8089 416.1 54.3089C415.6 53.7089 414.4 47.4089 413.4 40.3089C412.5 33.1089 411.5 25.4089 411.3 23.2089C410.8 19.2089 411 19.0089 414.1 17.9089Z"
        fill="#8B5CF8"
        fill-opacity="0.4"
      />
      <path
        d="M19.2 34.5089C22.6 31.9089 28.6 27.3089 32.5 24.3089C37.9 20.0089 40 19.0089 42 19.4089C43.3 19.7089 46.5 21.1089 49 22.5089C51.4 24.0089 58.4 29.9089 64.3 35.7089C70.3 41.5089 77.6 49.2089 80.4 52.8089C83.3 56.4089 86.1 60.2089 86.7 61.3089C87.7 63.0089 86.4 65.2089 77.3 77.3089C71.4 85.0089 66.4 91.4089 66.1 91.6089C65.7 91.7089 62.8 90.1089 59.5 87.9089C56.2 85.8089 47.9 78.9089 41 72.6089C32.6 65.0089 26 57.9089 20.8 50.8089C16.5 45.0089 13 40.1089 13 39.8089C13 39.5089 15.8 37.1089 19.2 34.5089Z"
        fill="#8B5CF8"
        fill-opacity="0.4"
      />
      <path
        d="M839.4 25.9089C843.2 22.8089 847 20.0089 847.8 19.7089C848.6 19.3089 849.8 19.3089 850.5 19.7089C851.1 20.0089 857.6 24.8089 864.8 30.3089C872.1 35.8089 878 40.5089 878 40.8089C878 41.1089 876.3 44.0089 874.1 47.3089C871.9 50.6089 865 58.9089 858.8 65.8089C851.2 74.1089 844 80.8089 837 86.0089C831.2 90.3089 826.1 93.7089 825.8 93.5089C825.4 93.4089 823.3 91.0089 821.3 88.1089C819.2 85.2089 814.6 79.3089 811.2 74.8089C806.4 68.6089 805.1 66.3089 805.6 64.5089C805.9 63.3089 807.3 60.3089 808.7 57.8089C810.2 55.3089 816.1 48.4089 821.9 42.4089C827.7 36.4089 835.6 29.0089 839.4 25.9089Z"
        fill="#8B5CF8"
        fill-opacity="0.4"
      />
      <path
        d="M351.4 31.8089C350.7 30.4089 350.4 28.9089 350.7 28.5089C350.9 28.0089 352.4 27.8089 353.8 28.0089C355.5 28.2089 357.2 29.5089 358.7 31.8089C360.1 33.8089 361 36.7089 361 38.8089C360.9 40.9089 359.4 44.9089 357.3 48.8089C354.7 53.3089 349 60.0089 338.5 70.6089C330.2 79.0089 321.2 87.3089 318.5 89.0089C314.3 91.6089 312.8 92.0089 310 91.4089C308 91.0089 305.2 89.8089 303.7 88.8089C301.8 87.4089 301 85.9089 301 84.0089C301 82.5089 301.4 80.6089 301.9 79.8089C302.7 78.5089 303.2 78.5089 305.1 79.6089C306.4 80.4089 308.6 81.0089 310 81.1089C311.3 81.1089 313.8 80.3089 315.5 79.3089C317.1 78.3089 321.1 74.9089 324.3 71.9089C327.5 68.8089 334.5 61.2089 339.8 54.9089C345.1 48.7089 349.9 42.9089 350.4 41.9089C350.9 41.0089 351.6 38.9089 352 37.3089C352.4 35.5089 352.2 33.3089 351.4 31.8089Z"
        fill="#8B5CF8"
        fill-opacity="0.4"
      />
      <path
        d="M529.9 40.3089C529.9 38.5089 530.9 35.7089 532.4 33.5089C534.4 30.8089 535.7 29.8089 537.7 29.8089C539.2 29.8089 540.9 30.2089 541.5 30.6089C542.3 31.1089 542.3 32.5089 541.4 35.3089C540.6 37.8089 540.5 40.2089 541 41.8089C541.5 43.2089 544.8 47.4089 548.3 51.3089C551.8 55.1089 560 62.8089 566.4 68.3089C572.9 73.8089 579.3 78.9089 580.8 79.7089C582.3 80.4089 585 80.8089 587 80.6089C588.9 80.3089 591.1 79.9089 592 79.7089C593 79.4089 593.5 80.1089 593.5 82.2089C593.5 84.1089 592.6 85.7089 591 87.0089C589.6 88.1089 586.4 89.1089 584 89.4089C580.1 89.9089 578.6 89.4089 573 86.1089C568.8 83.7089 561 76.9089 551.1 67.3089C542.7 59.0089 534.5 50.3089 532.9 47.8089C531.3 45.3089 530 41.9089 529.9 40.3089Z"
        fill="#8B5CF8"
        fill-opacity="0.4"
      />
      <path
        d="M-98 39.0089C-96.1 38.2089 -92.7 37.2089 -90.5 36.7089C-88.3 36.3089 -76.6 36.0089 -64.5 36.2089C-51.8 36.4089 -41.3 37.0089 -39.5 37.7089C-36.6 38.8089 -36.5 39.0089 -35.2 49.0089C-34.5 54.7089 -33.5 61.8089 -33 64.8089C-32.5 67.8089 -32 71.3089 -32 72.5089C-32 74.3089 -32.9 75.0089 -35.8 75.7089C-37.9 76.3089 -44.9 77.2089 -51.5 77.7089C-58.1 78.3089 -68 78.8089 -73.5 78.8089C-79 78.7089 -88 78.1089 -93.5 77.3089C-99 76.5089 -104.1 75.8089 -104.8 75.8089C-105.7 75.8089 -105.9 73.9089 -105.5 68.0089C-105.2 63.8089 -104.2 55.8089 -103.3 50.4089C-101.6 40.5089 -101.5 40.4089 -98 39.0089Z"
        fill="#8B5CF8"
        fill-opacity="0.4"
      />
      <path
        d="M476 65.0089C478.1 64.0089 480 62.0089 480.9 60.0089C481.6 58.3089 482.9 56.8089 483.6 56.8089C484.3 56.8089 485.4 57.7089 486 58.8089C486.5 59.9089 486.9 61.8089 486.9 63.0089C486.9 64.3089 485.9 67.0089 484.7 69.0089C483.5 71.1089 481.6 73.2089 480.5 73.7089C479.4 74.3089 475.5 75.5089 472 76.4089C467.5 77.6089 460 78.3089 448 78.6089C436.7 78.9089 427.4 78.6089 422 77.8089C415.1 76.7089 412.9 76.0089 410.9 73.9089C409.2 72.3089 408 69.6089 407.5 66.8089C406.8 62.8089 407 62.1089 409.1 60.5089C410.4 59.5089 412 58.7089 412.7 58.8089C413.4 58.8089 414.2 59.8089 414.5 61.0089C414.7 62.3089 416 64.3089 417.2 65.5089C418.9 67.2089 421.5 68.0089 427.5 68.8089C433.6 69.6089 439.7 69.5089 454 68.3089C466.6 67.2089 473.6 66.1089 476 65.0089Z"
        fill="#8B5CF8"
        fill-opacity="0.4"
      />
    </svg>